#N canvas 0 0 1914 976 10;
#X floatatom 305 395 5 0 0 0 - - -;
#X obj 207 449 vd~ chorus 1000;
#X obj 206 325 rand~;
#X floatatom 206 276 5 0 0 0 - - -;
#X floatatom 261 336 5 0 0 0 - - -;
#X text 303 335 DELAY;
#X text 258 277 DEPTH;
#X floatatom 327 466 5 0 0 0 - - -;
#X obj 246 259 r chor1;
#X obj 206 233 r chorus1;
#X text 206 211 FREQUENCY;
#X obj 261 294 r chorus2;
#X obj 303 319 r chor2;
#X obj 305 353 r chorus3;
#X obj 357 378 r chor3;
#X text 326 415 VOLUME;
#X obj 206 379 +~ 0.2;
#X obj 207 411 *~ 10;
#X obj 205 352 *~ 0.1;
#X obj 327 430 r chorus4;
#X obj 397 449 r chor4;
#X obj 206 482 *~;
#X obj 205 512 throw~ thechorus;
#X obj 34 126 +~;
#X text 261 84 ASSETS TO BE PUT IN RECIEVENG PATCHER;
#X text 431 147 The delwriter needs to be attached to the audiosignal
(e.g. readsf~);
#X text 33 148 Left Inlet gets the audio signal. Right inlet should
catch "theflange" outlet goes on its way to the dac~;
#X text 279 35 CHORUS HOMEBREWED MODULE;
#X obj 433 120 delwrite~ chorusname 2000;
#X obj 47 439 metro 100;
#X obj 47 414 tgl 15 0 empty empty empty 17 7 0 10 -262144 -1 -1 0
1;
#X obj 47 465 tabwrite~ choruswave;
#N canvas 0 0 450 300 (subpatch) 0;
#X array choruswave 100 float 2;
#X coords 0 1 100 -1 600 200 1 0 0;
#X restore 48 553 graph;
#X connect 0 0 16 1;
#X connect 0 0 17 1;
#X connect 1 0 21 0;
#X connect 1 0 31 0;
#X connect 2 0 18 0;
#X connect 3 0 2 0;
#X connect 4 0 18 1;
#X connect 7 0 21 1;
#X connect 8 0 3 0;
#X connect 9 0 3 0;
#X connect 11 0 4 0;
#X connect 12 0 4 0;
#X connect 13 0 0 0;
#X connect 14 0 0 0;
#X connect 16 0 17 0;
#X connect 17 0 1 0;
#X connect 18 0 16 0;
#X connect 19 0 7 0;
#X connect 20 0 7 0;
#X connect 21 0 22 0;
#X connect 29 0 31 0;
#X connect 30 0 29 0;
