#N canvas 0 0 1914 976 10;
#X obj 42 106 +~;
#X obj 164 307 delread~ echo 1000;
#X obj 164 245 r delayvalue1;
#X obj 321 281 r delayvalue2;
#X floatatom 321 324 5 0 0 0 - - -;
#X obj 382 307 r dval2;
#X floatatom 164 277 5 0 0 0 - - -;
#X obj 257 260 r dval1;
#X obj 162 368 throw~ feedbackdelay;
#X text 267 73 ASSETS TO BE PUT IN RECIEVENG PATCHER;
#X text 39 137 Left Inlet gets the audio signal. Right inlet should
catch "feedbackdelay". Outlet goes on its way to the dac~;
#X text 437 136 The delwriter needs to be attached to the audiosignal
(e.g. readsf~). For feedback delay attach it after a +~ in the pipeline
to the dac.. not directly on the readsf since that is just normal delay
;
#X obj 163 340 *~ 0.8;
#X obj 439 105 delwrite~ delayname 2000;
#X text 320 263 VOLUME;
#X text 162 216 FEEDBACK DELAY TIME;
#X text 246 35 FEEDBACK DELAY / DELAY HOMEBREWED MODULE;
#X obj 37 299 metro 100;
#X obj 37 274 tgl 15 0 empty empty empty 17 7 0 10 -262144 -1 -1 1
1;
#N canvas 0 0 450 300 (subpatch) 0;
#X array delaywave 100 float 2;
#X coords 0 1 100 -1 600 200 1 0 0;
#X restore 58 563 graph;
#X obj 37 325 tabwrite~ delaywave;
#X connect 1 0 12 0;
#X connect 1 0 20 0;
#X connect 2 0 6 0;
#X connect 3 0 4 0;
#X connect 4 0 12 1;
#X connect 5 0 4 0;
#X connect 6 0 1 0;
#X connect 7 0 6 0;
#X connect 12 0 8 0;
#X connect 17 0 20 0;
#X connect 18 0 17 0;
