#N canvas 0 0 1914 976 10;
#X obj 54 106 +~;
#X obj 212 392 *~ 10;
#X obj 211 359 +~ 0.2;
#X obj 210 333 *~ 0.1;
#X obj 211 306 osc~ 2;
#X obj 211 244 r flangevalue1;
#X obj 409 393 r flangevalue2;
#X obj 309 264 r fval1;
#X floatatom 211 281 5 0 0 0 - - -;
#X floatatom 409 435 5 0 0 0 - - -;
#X obj 452 418 r fval2;
#X floatatom 357 376 5 0 0 0 - - -;
#X floatatom 363 317 5 0 0 0 - - -;
#X text 356 338 DELAY;
#X text 214 223 FREQUENCY;
#X text 406 377 VOLUME;
#X obj 363 274 r flangevalue3;
#X obj 406 300 r fval3;
#X text 364 256 DEPTH;
#X obj 357 355 r fval4;
#X obj 412 359 r flangevalue4;
#X obj 212 425 vd~ flanger 1000;
#X obj 211 486 throw~ theflange;
#X text 299 15 FLANGER EFFECT HOMEBREWED MODULE;
#X text 281 64 ASSETS TO BE PUT IN RECIEVENG PATCHER;
#X text 451 127 The delwriter needs to be attached to the audiosignal
(e.g. readsf~);
#X text 53 128 Left Inlet gets the audio signal. Right inlet should
catch "theflange" outlet goes on its way to the dac~;
#X obj 211 451 *~;
#X obj 453 100 delwrite~ flangename 2000;
#X obj 48 441 metro 100;
#X obj 48 416 tgl 15 0 empty empty empty 17 7 0 10 -262144 -1 -1 1
1;
#X obj 48 467 tabwrite~ flangerwave;
#N canvas 0 0 450 300 (subpatch) 0;
#X array flangerwave 100 float 0;
#X coords 0 1 99 -1 600 200 1 0 0;
#X restore 50 550 graph;
#X connect 1 0 21 0;
#X connect 2 0 1 0;
#X connect 3 0 2 0;
#X connect 4 0 3 0;
#X connect 5 0 8 0;
#X connect 6 0 9 0;
#X connect 7 0 8 0;
#X connect 8 0 4 0;
#X connect 9 0 27 1;
#X connect 10 0 9 0;
#X connect 11 0 1 1;
#X connect 11 0 2 1;
#X connect 12 0 3 1;
#X connect 16 0 12 0;
#X connect 17 0 12 0;
#X connect 19 0 11 0;
#X connect 20 0 11 0;
#X connect 21 0 27 0;
#X connect 27 0 22 0;
#X connect 27 0 31 0;
#X connect 29 0 31 0;
#X connect 30 0 29 0;
