#N canvas 1067 118 451 468 10;
#X msg 40 135 8.818;
#X obj 40 165 s flangevalue1;
#X msg 140 135 0.86;
#X msg 240 135 1;
#X msg 340 135 1;
#X obj 140 165 s flangevalue2;
#X obj 240 165 s flangevalue3;
#X obj 340 165 s flangevalue4;
#X obj 40 235 s chorus1;
#X msg 40 205 3.106;
#X msg 140 205 0.515;
#X msg 240 205 2.444;
#X msg 340 205 0.326;
#X obj 140 235 s chorus2;
#X obj 240 235 s chorus3;
#X obj 340 235 s chorus4;
#X msg 40 275 1.963;
#X msg 140 275 0.366;
#X msg 239 275 0.23;
#X msg 340 275 0.102;
#X msg 39 345 267.4;
#X msg 140 345 0.164;
#X obj 183 42 bng 15 250 50 0 empty empty empty 17 7 0 10 -262144 -1
-1;
#X obj 183 14 r pre1;
#X obj 39 375 s delayvalue1;
#X obj 140 375 s delayvalue2;
#X obj 40 305 s trem1;
#X obj 140 305 s trem2;
#X obj 240 305 s trem3;
#X obj 340 305 s trem4;
#X obj 520 165 s flangevalue1;
#X obj 620 165 s flangevalue2;
#X obj 720 165 s flangevalue3;
#X obj 820 165 s flangevalue4;
#X obj 520 235 s chorus1;
#X obj 620 235 s chorus2;
#X obj 720 235 s chorus3;
#X obj 820 235 s chorus4;
#X obj 663 42 bng 15 250 50 0 empty empty empty 17 7 0 10 -262144 -1
-1;
#X obj 519 375 s delayvalue1;
#X obj 620 375 s delayvalue2;
#X obj 520 305 s trem1;
#X obj 620 305 s trem2;
#X obj 720 305 s trem3;
#X obj 820 305 s trem4;
#X obj 1000 165 s flangevalue1;
#X obj 1100 165 s flangevalue2;
#X obj 1200 165 s flangevalue3;
#X obj 1300 165 s flangevalue4;
#X obj 1000 235 s chorus1;
#X obj 1100 235 s chorus2;
#X obj 1200 235 s chorus3;
#X obj 1300 235 s chorus4;
#X obj 1143 42 bng 15 250 50 0 empty empty empty 17 7 0 10 -262144
-1 -1;
#X obj 999 375 s delayvalue1;
#X obj 1100 375 s delayvalue2;
#X obj 1000 305 s trem1;
#X obj 1100 305 s trem2;
#X obj 1200 305 s trem3;
#X obj 1300 305 s trem4;
#X obj 1143 14 r pre3;
#X msg 1000 135 4.95;
#X msg 1100 135 0.86;
#X msg 1200 135 0.733;
#X msg 1300 135 5.028;
#X msg 1000 205 5.39;
#X msg 1100 205 0.398;
#X msg 1200 205 3.265;
#X msg 1300 205 0.325;
#X msg 1100 275 0.365;
#X msg 999 345 315.4;
#X msg 1100 345 0.181;
#X msg 1300 275 0.285;
#X msg 1198 275 0.292;
#X msg 1000 275 8.135;
#X obj 663 14 r pre2;
#X msg 720 135 0.42;
#X msg 620 135 0.081;
#X msg 520 135 0.38;
#X msg 820 135 1.442;
#X msg 520 205 10;
#X msg 620 205 0.885;
#X msg 720 205 3.607;
#X msg 820 205 0.489;
#X msg 520 275 0.38;
#X msg 620 275 0.05;
#X msg 719 275 0.551;
#X msg 820 275 0.183;
#X obj 1435 165 s flangevalue1;
#X obj 1535 165 s flangevalue2;
#X obj 1635 165 s flangevalue3;
#X obj 1735 165 s flangevalue4;
#X obj 1435 235 s chorus1;
#X obj 1535 235 s chorus2;
#X obj 1635 235 s chorus3;
#X obj 1735 235 s chorus4;
#X obj 1578 42 bng 15 250 50 0 empty empty empty 17 7 0 10 -262144
-1 -1;
#X obj 1434 375 s delayvalue1;
#X obj 1535 375 s delayvalue2;
#X obj 1435 305 s trem1;
#X obj 1535 305 s trem2;
#X obj 1635 305 s trem3;
#X obj 1735 305 s trem4;
#X obj 1578 14 r pre4;
#X msg 1435 135 1.783;
#X msg 1534 135 0.142;
#X msg 1635 135 0.058;
#X msg 1735 135 1.643;
#X msg 1434 345 126.2;
#X msg 1535 345 0.285;
#X msg 1435 205 7.955;
#X msg 1535 205 0.577;
#X msg 1635 205 7.875;
#X msg 1735 204 0.51;
#X msg 1535 274 0.941;
#X msg 1633 276 0.362;
#X msg 1736 275 0.367;
#X msg 519 345 629.2;
#X msg 621 345 0.285;
#X msg 1435 275 75.53;
#X connect 0 0 1 0;
#X connect 2 0 5 0;
#X connect 3 0 6 0;
#X connect 4 0 7 0;
#X connect 9 0 8 0;
#X connect 10 0 13 0;
#X connect 11 0 14 0;
#X connect 12 0 15 0;
#X connect 16 0 26 0;
#X connect 17 0 27 0;
#X connect 18 0 28 0;
#X connect 19 0 29 0;
#X connect 20 0 24 0;
#X connect 21 0 25 0;
#X connect 22 0 0 0;
#X connect 22 0 2 0;
#X connect 22 0 3 0;
#X connect 22 0 4 0;
#X connect 22 0 12 0;
#X connect 22 0 11 0;
#X connect 22 0 10 0;
#X connect 22 0 9 0;
#X connect 22 0 16 0;
#X connect 22 0 17 0;
#X connect 22 0 18 0;
#X connect 22 0 19 0;
#X connect 22 0 20 0;
#X connect 22 0 21 0;
#X connect 23 0 22 0;
#X connect 38 0 78 0;
#X connect 38 0 77 0;
#X connect 38 0 76 0;
#X connect 38 0 79 0;
#X connect 38 0 83 0;
#X connect 38 0 82 0;
#X connect 38 0 81 0;
#X connect 38 0 80 0;
#X connect 38 0 84 0;
#X connect 38 0 85 0;
#X connect 38 0 86 0;
#X connect 38 0 87 0;
#X connect 38 0 117 0;
#X connect 38 0 118 0;
#X connect 53 0 61 0;
#X connect 53 0 62 0;
#X connect 53 0 63 0;
#X connect 53 0 64 0;
#X connect 53 0 68 0;
#X connect 53 0 67 0;
#X connect 53 0 66 0;
#X connect 53 0 65 0;
#X connect 53 0 74 0;
#X connect 53 0 69 0;
#X connect 53 0 73 0;
#X connect 53 0 72 0;
#X connect 53 0 70 0;
#X connect 53 0 71 0;
#X connect 60 0 53 0;
#X connect 61 0 45 0;
#X connect 62 0 46 0;
#X connect 63 0 47 0;
#X connect 64 0 48 0;
#X connect 65 0 49 0;
#X connect 66 0 50 0;
#X connect 67 0 51 0;
#X connect 68 0 52 0;
#X connect 69 0 57 0;
#X connect 70 0 54 0;
#X connect 71 0 55 0;
#X connect 72 0 59 0;
#X connect 73 0 58 0;
#X connect 74 0 56 0;
#X connect 75 0 38 0;
#X connect 76 0 32 0;
#X connect 77 0 31 0;
#X connect 78 0 30 0;
#X connect 79 0 33 0;
#X connect 80 0 34 0;
#X connect 81 0 35 0;
#X connect 82 0 36 0;
#X connect 83 0 37 0;
#X connect 84 0 41 0;
#X connect 85 0 42 0;
#X connect 86 0 43 0;
#X connect 87 0 44 0;
#X connect 96 0 104 0;
#X connect 96 0 105 0;
#X connect 96 0 106 0;
#X connect 96 0 107 0;
#X connect 96 0 113 0;
#X connect 96 0 112 0;
#X connect 96 0 111 0;
#X connect 96 0 110 0;
#X connect 96 0 119 0;
#X connect 96 0 114 0;
#X connect 96 0 115 0;
#X connect 96 0 116 0;
#X connect 96 0 108 0;
#X connect 96 0 109 0;
#X connect 103 0 96 0;
#X connect 104 0 88 0;
#X connect 105 0 89 0;
#X connect 106 0 90 0;
#X connect 107 0 91 0;
#X connect 108 0 97 0;
#X connect 109 0 98 0;
#X connect 110 0 92 0;
#X connect 111 0 93 0;
#X connect 112 0 94 0;
#X connect 113 0 95 0;
#X connect 114 0 100 0;
#X connect 115 0 101 0;
#X connect 116 0 102 0;
#X connect 117 0 39 0;
#X connect 118 0 40 0;
#X connect 119 0 99 0;
