#N canvas 685 65 683 648 10;
#X msg 69 -41 0;
#X msg 123 -49 1;
#X msg 196 -41 open track1.wav;
#X obj 123 -24 readsf~;
#X obj 122 216 +~;
#X obj 169 -66 t b b;
#X obj 69 -65 r stop;
#X obj 169 -90 r start;
#X obj 162 52 spigot;
#X obj 195 32 tgl 15 0 empty empty empty 17 7 0 10 -262144 -1 -1 1
1;
#X obj 162 78 s start;
#X obj 121 336 *~;
#X floatatom 431 320 5 0 0 0 - - -;
#X obj 222 15 loadbang;
#X obj 121 288 +~;
#X obj 310 -58 inlet;
#X obj 31 352 throw~ left;
#X obj 121 372 throw~ right;
#X obj 431 297 r volume;
#X text 430 272 VOLUME CONTROL;
#X obj 226 -73 s stop1;
#X text 223 -91 STOP THE OTHER TRACK JUST IN CASE;
#X obj 153 126 delwrite~ testflanger 2000;
#X obj 242 233 delwrite~ testecho 2000;
#X text 360 179 test skal fjernes i navnene og de skal gøres til en
subpack med navne;
#X text 138 194 catch the flange her;
#X text 151 275 catch feedback delay her;
#X connect 0 0 3 0;
#X connect 1 0 3 0;
#X connect 2 0 3 0;
#X connect 3 0 4 0;
#X connect 3 0 22 0;
#X connect 3 1 8 0;
#X connect 4 0 14 0;
#X connect 4 0 23 0;
#X connect 5 0 1 0;
#X connect 5 1 2 0;
#X connect 6 0 0 0;
#X connect 7 0 5 0;
#X connect 7 0 20 0;
#X connect 8 0 10 0;
#X connect 9 0 8 1;
#X connect 11 0 16 0;
#X connect 11 0 17 0;
#X connect 12 0 11 1;
#X connect 13 0 9 0;
#X connect 14 0 11 0;
#X connect 15 0 2 0;
#X connect 18 0 12 0;
