#N canvas 866 15 864 976 10;
#X msg 189 385 set open track1.wav;
#X msg 205 345 set open track2.wav;
#X obj 189 16 inlet;
#X obj 40 423 outlet;
#X obj 189 73 select 0 1 2 3 4 5 6 7;
#X msg 221 304 set open track3.wav;
#X obj 207 43 s stop1;
#X msg 237 265 set open track4.wav;
#X msg 253 224 set open track5.wav;
#X msg 285 145 set open track7.wav;
#X msg 301 104 set open track8.wav;
#X msg 269 184 set open track9.wav;
#X obj 91 38 loadbang;
#X msg 91 56 0;
#X connect 0 0 3 0;
#X connect 1 0 3 0;
#X connect 2 0 4 0;
#X connect 2 0 6 0;
#X connect 4 0 0 0;
#X connect 4 1 1 0;
#X connect 4 2 5 0;
#X connect 4 3 7 0;
#X connect 4 4 8 0;
#X connect 4 5 11 0;
#X connect 4 6 9 0;
#X connect 4 7 10 0;
#X connect 5 0 3 0;
#X connect 7 0 3 0;
#X connect 8 0 3 0;
#X connect 9 0 3 0;
#X connect 10 0 3 0;
#X connect 11 0 3 0;
#X connect 12 0 13 0;
#X connect 13 0 4 0;
