#N canvas 0 0 1914 966 10;
#X obj 248 318 osc~;
#X floatatom 248 291 5 0 0 0 - - -;
#X floatatom 570 319 5 0 0 0 - - -;
#X obj 400 335 *~;
#X obj 384 392 +~;
#X floatatom 438 376 5 0 0 0 - - -;
#X obj 248 253 r trem1;
#X obj 518 302 r trem2;
#X obj 530 359 r trem3;
#X obj 302 274 r tremololo1;
#X obj 438 352 r tremololo3;
#X obj 570 277 r tremololo2;
#X text 248 232 FREQUENCY;
#X text 436 335 OFFSET;
#X floatatom 440 454 5 0 0 0 - - -;
#X obj 505 437 r trem4;
#X obj 383 470 *~;
#X obj 384 495 env~;
#X floatatom 384 518 5 0 0 0 - - -;
#X obj 265 347 catch~ audio;
#X obj 248 486 throw~ tremololololo;
#X obj 94 156 +~;
#X text 321 114 ASSETS TO BE PUT IN RECIEVENG PATCHER;
#X text 491 177 The delwriter needs to be attached to the audiosignal
(e.g. readsf~);
#X text 93 178 Left Inlet gets the audio signal. Right inlet should
catch "theflange" outlet goes on its way to the dac~;
#X obj 493 150 delwrite~ tremoloname 2000;
#X text 339 85 TREMOLO HOMEBREWED MODULE;
#X text 569 260 DEPTH;
#X text 424 400 VOLUME;
#X obj 90 382 metro 100;
#X obj 90 357 tgl 15 0 empty empty empty 17 7 0 10 -262144 -1 -1 0
1;
#N canvas 0 0 450 300 (subpatch) 0;
#X array tremolowave 100 float 2;
#X coords 0 1 100 -1 600 200 1 0 0;
#X restore 99 582 graph;
#X obj 384 365 *~;
#X obj 440 417 r tremololo4;
#X obj 90 408 tabwrite~ tremolowave;
#X connect 0 0 3 0;
#X connect 1 0 0 0;
#X connect 2 0 3 1;
#X connect 3 0 32 1;
#X connect 4 0 16 0;
#X connect 4 0 34 0;
#X connect 5 0 4 1;
#X connect 6 0 1 0;
#X connect 7 0 2 0;
#X connect 8 0 5 0;
#X connect 9 0 1 0;
#X connect 10 0 5 0;
#X connect 11 0 2 0;
#X connect 14 0 16 1;
#X connect 15 0 14 0;
#X connect 16 0 17 0;
#X connect 16 0 20 0;
#X connect 17 0 18 0;
#X connect 19 0 32 0;
#X connect 29 0 34 0;
#X connect 30 0 29 0;
#X connect 32 0 4 0;
#X connect 33 0 14 0;
