#N canvas 0 0 1914 966 10;
#X msg 25 189 0;
#X msg 173 111 1;
#X obj 173 206 readsf~;
#X obj 219 94 t b b;
#X obj 212 282 spigot;
#X obj 245 262 tgl 15 0 empty empty empty 17 7 0 10 -262144 -1 -1 1
1;
#X obj 272 245 loadbang;
#X obj 219 70 r start1;
#X obj 25 166 r stop1;
#X floatatom 243 647 5 0 0 0 - - -;
#X obj 171 846 throw~ left;
#X obj 287 710 throw~ right;
#X obj 243 624 r volume1;
#X obj 212 308 s start1;
#X obj 173 663 *~;
#X obj 25 223 env~;
#X floatatom 25 247 5 0 0 0 - - -;
#X obj 475 222 delwrite~ chorus 2000;
#X obj 173 366 +~;
#X obj 194 436 delwrite~ echo 2000;
#X obj 172 418 +~;
#X obj 334 222 delwrite~ flanger 2000;
#X obj 189 340 catch~ theflange;
#X obj 188 393 catch~ feedbackdelay;
#X obj 651 144 feedbackdelaymodule;
#X obj 651 171 flangermodule;
#X msg 246 119 open track2.wav;
#X obj 172 578 +~;
#X obj 173 496 +~;
#X obj 206 512 env~;
#X floatatom 206 535 5 0 0 0 - - -;
#X floatatom 207 617 5 0 0 0 - - -;
#X obj 207 594 env~;
#X obj 227 562 catch~ thechorus;
#X obj 651 198 chorusmodule;
#X obj 247 222 throw~ audio;
#X obj 188 469 catch~ tremololololo;
#X obj 427 102 r trackNo;
#X obj 779 171 trackselector;
#X obj 779 144 r track;
#X obj 779 198 s trackNo;
#X text 341 341 Add the flanger module;
#X text 341 391 Add the feedback delay module;
#X text 341 469 Add the tremolo module;
#X text 341 562 Add the chorus module;
#X obj 886 145 presets;
#X text 652 88 LOADING ALL THEM MODULES AND OTHER VARIOUS SUBPATCHES
;
#X obj 651 225 tremolomodule;
#X floatatom 353 665 5 0 0 0 - - -;
#X obj 353 642 r RChanVol;
#X obj 286 681 *~;
#X floatatom 237 797 5 0 0 0 - - -;
#X obj 172 813 *~;
#X obj 237 774 r LChanVol;
#X text 649 123 EFX MODULES;
#X text 777 123 TRACK MANAGER;
#X text 882 123 PRESET VALUES;
#X text 342 435 Writes to the feedback delay;
#X text 214 173 Throw audio to tremolo;
#X text 345 188 Writes to the flanger;
#X text 477 203 Writes to the chorus;
#X text 243 603 Master Volume;
#X text 354 623 Right Channel Volume;
#X text 235 753 Left Channel Volume;
#X text 115 42 AUDIO PIPELINE;
#X obj 25 653 metro 100;
#X obj 25 628 tgl 15 0 empty empty empty 17 7 0 10 -262144 -1 -1 1
1;
#X obj 25 679 tabwrite~ soundshape;
#X obj 25 606 r wavshape;
#X connect 0 0 2 0;
#X connect 1 0 2 0;
#X connect 2 0 15 0;
#X connect 2 0 17 0;
#X connect 2 0 21 0;
#X connect 2 0 18 0;
#X connect 2 0 35 0;
#X connect 2 1 4 0;
#X connect 3 0 1 0;
#X connect 3 1 26 0;
#X connect 4 0 13 0;
#X connect 5 0 4 1;
#X connect 6 0 5 0;
#X connect 7 0 3 0;
#X connect 8 0 0 0;
#X connect 9 0 14 1;
#X connect 12 0 9 0;
#X connect 14 0 52 0;
#X connect 14 0 50 0;
#X connect 14 0 67 0;
#X connect 15 0 16 0;
#X connect 18 0 20 0;
#X connect 20 0 28 0;
#X connect 20 0 19 0;
#X connect 22 0 18 1;
#X connect 23 0 20 1;
#X connect 26 0 2 0;
#X connect 27 0 14 0;
#X connect 27 0 32 0;
#X connect 28 0 27 0;
#X connect 28 0 29 0;
#X connect 29 0 30 0;
#X connect 32 0 31 0;
#X connect 33 0 27 1;
#X connect 36 0 28 1;
#X connect 37 0 26 0;
#X connect 38 0 40 0;
#X connect 39 0 38 0;
#X connect 48 0 50 1;
#X connect 49 0 48 0;
#X connect 50 0 11 0;
#X connect 51 0 52 1;
#X connect 52 0 10 0;
#X connect 53 0 51 0;
#X connect 65 0 67 0;
#X connect 66 0 65 0;
#X connect 68 0 66 0;
